# xmcd
#
# Track frame offsets:
#	150
#	16743
#	34872
#	55662
#	71695
#	87322
#	105520
#	121069
#	138434
#	154267
#	169140
#	184187
#	198206
#	211129
#	227160
#	248089
#	262668
#	275676
#	289538
#
# Disc length: 4056 seconds
#
# Revision: 2
# Processed by: cddbd v1.5.2PL0 Copyright (c) Steve Scherf et al.
# Submitted via: audiograbber 1.83.01
#
DISCID=000fd613
DTITLE=Various Artist - Promo Only Country Radio 2005 - 11
DYEAR=2005
DGENRE=Country
TTITLE0=Trace Adkins - Honky Tonk Badonkadonk
TTITLE1=Kenny Chesney - Who You'd Be Today
TTITLE2=Brooks and Dunn - Believe
TTITLE3=Tim McGraw - My Old Friend
TTITLE4=Big and Rich - Comin' To Your City
TTITLE5=Brad Paisley ft. Dolly Parton - When I Get Where I'm Going
TTITLE6=Danielle Peck - I Don't
TTITLE7=Doug Stone - Everything
TTITLE8=Hometown News - That's Country To Me
TTITLE9=Shannon Brown - Corn Fed
TTITLE10=Lila McCann - I'm Amazed
TTITLE11=Joey Martin - That's Important To Me
TTITLE12=Hot Apple Pie - We're Makin' Up
TTITLE13=Wynonna - Attitude
TTITLE14=John Keaton - Heart Of The Little Town
TTITLE15=Erika Joe - I'm Not Lisa
TTITLE16=Shawn King - In My Own Backyard
TTITLE17=Carolina Rain - Let's Get It On
TTITLE18=Doug Adkins - Whiskey Salesman
EXTD=
EXTT0=
EXTT1=
EXTT2=
EXTT3=
EXTT4=
EXTT5=
EXTT6=
EXTT7=
EXTT8=
EXTT9=
EXTT10=
EXTT11=
EXTT12=
EXTT13=
EXTT14=
EXTT15=
EXTT16=
EXTT17=
EXTT18=
PLAYORDER=
